# xmcd
#
# Track frame offsets: 
#        150
#        9418
#        20619
#        32091
#        43304
#        53358
#        63520
#        75917
#        89646
#        101106
#        113346
#        126388
#        137654
#        150245
#        160600
#        172920
#        184249
#        195180
#        208341
#        219438
#        232001
#        243131
#        254412
#        264769
#
# Disc length: 3607 seconds
#
# Revision: 3
# Processed by: cddbd v1.5.2PL0 Copyright (c) Steve Scherf et al.
# Submitted via: ExactAudioCopyFreeDBPlugin 1.0
#
DISCID=340e1518
DTITLE=The Valentinos - Lookin' for a Love:  The Complete SAR Records 
DTITLE=Recordings
DYEAR=2014
DGENRE=Rhythm and Blues
TTITLE0=Somebody's Wrong (as the "Womack Brothers")
TTITLE1=Couldn't Hear Nobody Pray (as the "Womack Brothers")
TTITLE2=Lookin' for a Love
TTITLE3=Darling, Come Back Home
TTITLE4=I'll Make it Alright
TTITLE5=I've Got a Girl
TTITLE6=Tired of Livin' in the Country (single version)
TTITLE7=Don't Go Away (previously unreleased)
TTITLE8=She's So Good to Me
TTITLE9=Baby, Lots of Luck
TTITLE10=It's All Over Now
TTITLE11=I've Got Love for You
TTITLE12=Rock in the Cradle of Love (previously unreleased)
TTITLE13=Somewhere There's a Girl
TTITLE14=Sugar Dumpling (previously unreleased)
TTITLE15=Bitter Dreams
TTITLE16=Everybody Wants to Fall in Love
TTITLE17=Put Me Down Easy (previously unreleased)
TTITLE18=To Show My Love (previously unreleased)
TTITLE19=Shakin' This Way and That (Lassie) (previously unreleased)
TTITLE20=Tired of Livin' in the Country (previously unreleased)
TTITLE21=Yield Not to Temptation (as the "Womack Brothers")
TTITLE22=Somewhere's There's a God (as the "Womack Brothers")
TTITLE23=Studio Chatter with Sam Cooke
EXTD=
EXTT0=
EXTT1=
EXTT2=
EXTT3=
EXTT4=
EXTT5=
EXTT6=
EXTT7=
EXTT8=
EXTT9=
EXTT10=
EXTT11=
EXTT12=
EXTT13=
EXTT14=
EXTT15=
EXTT16=
EXTT17=
EXTT18=
EXTT19=
EXTT20=
EXTT21=
EXTT22=
EXTT23=
PLAYORDER=
